<?xml version="1.0" encoding="UTF-8"?>
<svg width="96" height="96" viewBox="0 0 96 96" fill="none" xmlns="http://www.w3.org/2000/svg">
<circle cx="50" cy="50" r="45" fill="#10b981" opacity="0.08" />
  <path d="M50 15 Q 35 20, 28 35 Q 22 50, 28 65 Q 35 80, 50 85 Q 65 80, 72 65 Q 78 50, 72 35 Q 65 20, 50 15 Z" fill="#10b981"/>
  <path d="M50 15 Q 65 20, 72 35 Q 78 50, 72 65 Q 65 80, 50 85 L 50 15 Z" fill="#059669" opacity="0.7"/>
  <path d="M50 20 Q 37 25, 32 38 Q 28 50, 32 62 Q 37 73, 48 78" stroke="#34d399" stroke-width="1.5" fill="none" opacity="0.5"/>
  <line x1="50" y1="15" x2="50" y2="85" stroke="#047857" stroke-width="2.5" stroke-linecap="round"/>
  <path d="M50 30 Q 40 32, 35 40" stroke="#047857" stroke-width="1.2" stroke-linecap="round" opacity="0.6"/>
  <path d="M50 45 Q 40 47, 33 55" stroke="#047857" stroke-width="1.2" stroke-linecap="round" opacity="0.6"/>
  <path d="M50 60 Q 42 62, 38 68" stroke="#047857" stroke-width="1.2" stroke-linecap="round" opacity="0.6"/>
  <path d="M50 30 Q 60 32, 65 40" stroke="#047857" stroke-width="1.2" stroke-linecap="round" opacity="0.6"/>
  <path d="M50 45 Q 60 47, 67 55" stroke="#047857" stroke-width="1.2" stroke-linecap="round" opacity="0.6"/>
  <path d="M50 60 Q 58 62, 62 68" stroke="#047857" stroke-width="1.2" stroke-linecap="round" opacity="0.6"/>
</svg>