<?xml version="1.0" encoding="UTF-8"?>
<svg width="300" height="350" viewBox="0 0 300 350" fill="none" xmlns="http://www.w3.org/2000/svg">
<path d="M150 115 Q 135 120, 128 135 Q 122 150, 128 165 Q 135 180, 150 185 Q 165 180, 172 165 Q 178 150, 172 135 Q 165 120, 150 115 Z" stroke="#10b981" stroke-width="3" fill="none" stroke-linecap="round" stroke-linejoin="round"/>
  <line x1="150" y1="115" x2="150" y2="185" stroke="#059669" stroke-width="2.5" stroke-linecap="round"/>
  <path d="M150 135 L 135 145" stroke="#059669" stroke-width="1.5" stroke-linecap="round" opacity="0.5"/>
  <path d="M150 150 L 130 158" stroke="#059669" stroke-width="1.5" stroke-linecap="round" opacity="0.5"/>
  <path d="M150 165 L 138 172" stroke="#059669" stroke-width="1.5" stroke-linecap="round" opacity="0.5"/>
  <path d="M150 135 L 165 145" stroke="#059669" stroke-width="1.5" stroke-linecap="round" opacity="0.5"/>
  <path d="M150 150 L 170 158" stroke="#059669" stroke-width="1.5" stroke-linecap="round" opacity="0.5"/>
  <path d="M150 165 L 162 172" stroke="#059669" stroke-width="1.5" stroke-linecap="round" opacity="0.5"/>
  <text x="150" y="220" text-anchor="middle" font-size="32" font-weight="600" fill="#059669" font-family="system-ui, -apple-system, sans-serif">Verdant</text>
  <text x="205" y="220" font-size="16" font-weight="500" fill="#717182" font-family="system-ui, -apple-system, sans-serif" letter-spacing="0.1em">SCN</text>
</svg>