<?xml version="1.0" encoding="UTF-8"?>
<svg width="280" height="120" viewBox="0 0 280 120" fill="none" xmlns="http://www.w3.org/2000/svg">
<circle cx="60" cy="60" r="45" fill="#10b981" opacity="0.08" />
  <path d="M60 15 Q 45 20, 38 35 Q 32 50, 38 65 Q 45 80, 60 85 Q 75 80, 82 65 Q 88 50, 82 35 Q 75 20, 60 15 Z" fill="#10b981"/>
  <path d="M60 15 Q 75 20, 82 35 Q 88 50, 82 65 Q 75 80, 60 85 L 60 15 Z" fill="#059669" opacity="0.7"/>
  <line x1="60" y1="15" x2="60" y2="85" stroke="#047857" stroke-width="2.5" stroke-linecap="round"/>
  <path d="M60 30 Q 50 32, 45 40" stroke="#047857" stroke-width="1.2" stroke-linecap="round" opacity="0.6"/>
  <path d="M60 45 Q 50 47, 43 55" stroke="#047857" stroke-width="1.2" stroke-linecap="round" opacity="0.6"/>
  <path d="M60 60 Q 52 62, 48 68" stroke="#047857" stroke-width="1.2" stroke-linecap="round" opacity="0.6"/>
  <path d="M60 30 Q 70 32, 75 40" stroke="#047857" stroke-width="1.2" stroke-linecap="round" opacity="0.6"/>
  <path d="M60 45 Q 70 47, 77 55" stroke="#047857" stroke-width="1.2" stroke-linecap="round" opacity="0.6"/>
  <path d="M60 60 Q 68 62, 72 68" stroke="#047857" stroke-width="1.2" stroke-linecap="round" opacity="0.6"/>
  <text x="140" y="55" font-size="32" font-weight="600" fill="#059669" font-family="system-ui, -apple-system, sans-serif">Verdant</text>
  <text x="140" y="75" font-size="14" font-weight="500" fill="#717182" font-family="system-ui, -apple-system, sans-serif" letter-spacing="0.1em">BY SCN</text>
</svg>